<svg width="442" height="58" viewBox="0 0 442 58" fill="none" xmlns="http://www.w3.org/2000/svg">
<path d="M0 7.19995H16.27L26.63 23.93C27.37 25.13 28.28 27 29.42 29.45C28.91 26.83 28.74 24.22 28.74 21.54V7.19995H41.37V49.7H28.74L14.74 27.45C14.23 26.65 13.26 24.83 11.95 21.93C12.46 24.55 12.63 27.11 12.63 29.78V49.7H0V7.19995Z" fill="#002E3D"/>
<path d="M49.33 7.19995H84.78V18.69H62.65V23.58H84.67V33.2H62.65V38.09H84.61V49.7H49.33V7.19995Z" fill="#002E3D"/>
<path d="M118.36 28.9299L123.48 7.18994H141.86V49.6999H129.23V28.6999C129.23 25.9699 129.46 23.0099 129.97 19.9399H129.57L122.4 49.6999H111.99L104.76 19.9399H104.42C104.93 23.0099 105.16 25.9699 105.16 28.6999V49.6999H92.53V7.19994H110.91L116.03 28.9399C116.49 30.8699 116.83 33.0899 117.17 35.6499C117.51 33.0899 117.91 30.8699 118.37 28.9399L118.36 28.9299Z" fill="#002E3D"/>
<path d="M212 7.2002H225.03V23.4702H228.1L240.11 7.2002H255.76L239.6 28.0802L256.67 49.7002H240.17L228.11 33.4802H225.04V49.7002H212.01V7.2002H212Z" fill="#002E3D"/>
<path d="M289.5 49.7002H269.93C263.1 49.7002 259.57 45.8902 259.57 38.2602V18.6902C259.57 10.9002 262.93 7.2002 269.93 7.2002H289.5C296.56 7.2002 299.8 10.8402 299.8 18.6902V38.2602C299.8 45.8802 296.33 49.7002 289.5 49.7002ZM286.54 38.0902V18.6902H272.88V38.0902H286.54Z" fill="#002E3D"/>
<path d="M307.48 7.2002H323.75L334.11 23.9302C334.85 25.1302 335.76 27.0002 336.9 29.4502C336.39 26.8302 336.22 24.2202 336.22 21.5402V7.2002H348.85V49.7002H336.22L322.22 27.4502C321.71 26.6502 320.74 24.8302 319.43 21.9302C319.94 24.5502 320.11 27.1102 320.11 29.7802V49.7002H307.48V7.2002Z" fill="#002E3D"/>
<path d="M368.48 18.6902H355.45V7.2002H394.88V18.6902H382.42V49.7002H368.48V18.6902Z" fill="#002E3D"/>
<path d="M431.07 49.7002H411.5C404.67 49.7002 401.14 45.8902 401.14 38.2602V18.6902C401.14 10.9002 404.5 7.2002 411.5 7.2002H431.07C438.13 7.2002 441.37 10.8402 441.37 18.6902V38.2602C441.37 45.8802 437.9 49.7002 431.07 49.7002ZM428.11 38.0902V18.6902H414.45V38.0902H428.11Z" fill="#002E3D"/>
<path fill-rule="evenodd" clip-rule="evenodd" d="M204 29C204 43.9117 191.912 56 177 56C162.088 56 150 43.9117 150 29C150 14.0883 162.088 2 177 2C191.912 2 204 14.0883 204 29ZM190.641 15.1374C190.641 16.4197 189.601 17.4591 188.319 17.4591C187.037 17.4591 185.997 16.4197 185.997 15.1374C185.997 13.8552 187.037 12.8157 188.319 12.8157C189.601 12.8157 190.641 13.8552 190.641 15.1374ZM158.221 30.515C159.504 30.515 160.543 29.4755 160.543 28.1933C160.543 26.911 159.504 25.8716 158.221 25.8716C156.939 25.8716 155.9 26.911 155.9 28.1933C155.9 29.4755 156.939 30.515 158.221 30.515ZM165.694 30.515C166.976 30.515 168.016 29.4755 168.016 28.1933C168.016 26.911 166.976 25.8716 165.694 25.8716C164.412 25.8716 163.372 26.911 163.372 28.1933C163.372 29.4755 164.412 30.515 165.694 30.515ZM175.554 28.1933C175.554 29.4755 174.515 30.515 173.233 30.515C171.95 30.515 170.911 29.4755 170.911 28.1933C170.911 26.911 171.95 25.8716 173.233 25.8716C174.515 25.8716 175.554 26.911 175.554 28.1933ZM180.771 30.515C182.053 30.515 183.093 29.4755 183.093 28.1933C183.093 26.911 182.053 25.8716 180.771 25.8716C179.489 25.8716 178.449 26.911 178.449 28.1933C178.449 29.4755 179.489 30.515 180.771 30.515ZM190.641 28.1933C190.641 29.4755 189.601 30.515 188.319 30.515C187.037 30.515 185.997 29.4755 185.997 28.1933C185.997 26.911 187.037 25.8716 188.319 25.8716C189.601 25.8716 190.641 26.911 190.641 28.1933ZM195.857 30.515C197.14 30.515 198.179 29.4755 198.179 28.1933C198.179 26.911 197.14 25.8716 195.857 25.8716C194.575 25.8716 193.536 26.911 193.536 28.1933C193.536 29.4755 194.575 30.515 195.857 30.515ZM192.088 23.9916C193.371 23.9916 194.41 22.9522 194.41 21.6699C194.41 20.3877 193.371 19.3482 192.088 19.3482C190.806 19.3482 189.767 20.3877 189.767 21.6699C189.767 22.9522 190.806 23.9916 192.088 23.9916ZM190.641 41.259C190.641 42.5413 189.601 43.5807 188.319 43.5807C187.037 43.5807 185.997 42.5413 185.997 41.259C185.997 39.9768 187.037 38.9373 188.319 38.9373C189.601 38.9373 190.641 39.9768 190.641 41.259ZM192.088 37.0482C193.371 37.0482 194.41 36.0088 194.41 34.7265C194.41 33.4443 193.371 32.4048 192.088 32.4048C190.806 32.4048 189.767 33.4443 189.767 34.7265C189.767 36.0088 190.806 37.0482 192.088 37.0482Z" fill="#005E7E"/>
</svg>
